# xmcd
#
# Track frame offsets:
#	150
#	12062
#	27363
#	47839
#	72969
#	82107
#	96604
#	110512
#	122309
#	151892
#	170756
#	196184
#
# Disc length: 2771 seconds
#
# Revision: 1
# Processed by: cddbd v1.5.1PL2 Copyright (c) Steve Scherf et al.
# Submitted via: audiograbber 1.83.01
#
DISCID=9a0ad10c
DTITLE=Mindkiller - 2001
DYEAR=2001
DGENRE=Southern Rock
TTITLE0=Ehtno
TTITLE1=Spiel
TTITLE2=Pasta
TTITLE3=Parts
TTITLE4=Hit Mix
TTITLE5=Boom A
TTITLE6=Boom B
TTITLE7=The Wheel
TTITLE8=Car PassTrack  9
TTITLE9=Trance
TTITLE10=Wandering 003
TTITLE11=Sandal
EXTD=
EXTT0=
EXTT1=
EXTT2=
EXTT3=
EXTT4=
EXTT5=
EXTT6=
EXTT7=
EXTT8=
EXTT9=
EXTT10=
EXTT11=
PLAYORDER=
